<svg width="18" height="42" viewBox="0 0 18 42" fill="none" xmlns="http://www.w3.org/2000/svg">
<path d="M15.3163 24.5233C16.0381 23.7627 16.5649 22.8385 16.8515 21.8299C17.1382 20.8212 17.1761 19.7582 16.9621 18.7316C16.8753 18.3202 16.672 17.9424 16.3765 17.6432C16.081 17.3441 15.7058 17.1361 15.2955 17.0441C16.0265 16.2848 16.5606 15.3582 16.8511 14.345C17.1416 13.3318 17.1797 12.2629 16.9621 11.2316C16.8739 10.8118 16.6654 10.4268 16.362 10.1234C16.0587 9.82008 15.6736 9.61157 15.2538 9.5233C13.8183 9.2266 12.3251 9.40959 11.0038 10.0441C12.0916 8.86981 12.7029 7.33231 12.7184 5.73164C12.7084 4.66611 12.435 3.61961 11.9225 2.6854C11.4099 1.7512 10.6742 0.958329 9.78088 0.377469C9.42538 0.135134 9.00594 0.00378962 8.57571 8.07714e-05C8.14549 -0.00362807 7.72385 0.120466 7.36422 0.356636C6.46335 0.937877 5.72002 1.73266 5.20028 2.67037C4.68055 3.60807 4.40051 4.65964 4.38505 5.73164C4.39678 7.3358 5.01444 8.87624 6.11422 10.0441C4.79544 9.40087 3.2993 9.21752 1.86422 9.5233C1.44294 9.60831 1.05612 9.81576 0.752231 10.1196C0.448339 10.4235 0.240891 10.8104 0.155883 11.2316C-0.0643747 12.2612 -0.0295581 13.3291 0.2573 14.3422C0.544157 15.3553 1.07436 16.2828 1.80172 17.0441C1.39388 17.1368 1.02153 17.3454 0.729521 17.6448C0.437512 17.9442 0.238299 18.3216 0.155883 18.7316C-0.0616872 19.7565 -0.0274953 20.8188 0.255525 21.8275C0.538546 22.8362 1.06195 23.7612 1.78088 24.5233C1.37752 24.6279 1.01151 24.8434 0.72431 25.1453C0.437111 25.4472 0.2402 25.8235 0.155883 26.2316C-0.0550965 27.1635 -0.0518739 28.131 0.165308 29.0614C0.38249 29.9919 0.807967 30.8609 1.40969 31.603C2.01142 32.3451 2.77371 32.941 3.63913 33.3458C4.50456 33.7506 5.45056 33.9538 6.40588 33.94C6.77664 33.9457 7.14691 33.9108 7.51005 33.8358V40.3983C7.51005 40.6746 7.6198 40.9395 7.81515 41.1349C8.0105 41.3302 8.27545 41.44 8.55172 41.44C8.82798 41.44 9.09294 41.3302 9.28829 41.1349C9.48364 40.9395 9.59338 40.6746 9.59338 40.3983V33.8358C9.96342 33.9117 10.3407 33.9467 10.7184 33.94C11.5555 33.9468 12.3857 33.7884 13.1615 33.4738C13.9373 33.1592 14.6433 32.6946 15.2392 32.1066C15.9874 31.3444 16.5364 30.4098 16.838 29.3852C17.1396 28.3607 17.1843 27.2776 16.9684 26.2316C16.8792 25.8214 16.6774 25.4441 16.3855 25.1423C16.0936 24.8405 15.7233 24.6261 15.3163 24.5233ZM7.33713 31.7733C6.62758 31.9256 5.89141 31.9008 5.19375 31.7009C4.49608 31.5011 3.85841 31.1324 3.33713 30.6275C2.82003 30.0981 2.45002 29.443 2.26368 28.7269C2.07734 28.0107 2.08111 27.2584 2.27463 26.5441C2.59776 26.4863 2.92554 26.4584 3.2538 26.4608C3.81437 26.4501 4.37125 26.5535 4.89057 26.7648C5.4099 26.9762 5.8808 27.2909 6.27463 27.69C6.79713 28.2158 7.17077 28.8708 7.35743 29.5881C7.5441 30.3055 7.53709 31.0595 7.33713 31.7733ZM7.33713 24.2733C6.62762 24.4271 5.89106 24.403 5.19313 24.2031C4.4952 24.0032 3.85759 23.6336 3.33713 23.1275C2.8202 22.6024 2.45004 21.9509 2.2636 21.238C2.07716 20.5252 2.08097 19.7759 2.27463 19.065C2.59552 18.9903 2.92438 18.9553 3.2538 18.9608C3.81437 18.9501 4.37125 19.0535 4.89057 19.2649C5.4099 19.4762 5.8808 19.7909 6.27463 20.19C6.79713 20.7158 7.17077 21.3708 7.35743 22.0881C7.5441 22.8055 7.53709 23.5595 7.33713 24.2733ZM7.33713 16.7733C6.62762 16.9271 5.89106 16.903 5.19313 16.7031C4.4952 16.5032 3.85759 16.1336 3.33713 15.6275C2.8202 15.1024 2.45004 14.4509 2.2636 13.738C2.07716 13.0252 2.08097 12.2759 2.27463 11.565C2.59717 11.5005 2.92492 11.4656 3.2538 11.4608C3.81437 11.4501 4.37125 11.5535 4.89057 11.7648C5.4099 11.9762 5.8808 12.2909 6.27463 12.69C6.79713 13.2158 7.17077 13.8708 7.35743 14.5881C7.5441 15.3055 7.53709 16.0595 7.33713 16.7733ZM8.5038 9.37747C7.88756 8.98755 7.37856 8.44978 7.02308 7.81304C6.6676 7.17631 6.47693 6.46083 6.46838 5.73164C6.47488 4.98939 6.67904 4.26229 7.05986 3.62515C7.44067 2.98801 7.98439 2.46386 8.63505 2.10664C9.24179 2.49877 9.74199 3.03504 10.091 3.66759C10.44 4.30013 10.6269 5.00925 10.635 5.73164C10.6255 6.47177 10.4241 7.19676 10.0505 7.83578C9.67695 8.4748 9.14403 9.00599 8.5038 9.37747ZM13.7746 30.6275C13.2418 31.1392 12.5866 31.5056 11.8716 31.6916C11.1567 31.8776 10.406 31.8771 9.6913 31.69C9.62691 31.3815 9.59203 31.0676 9.58713 30.7525V30.7108C9.57902 29.5744 10.0209 28.4809 10.8163 27.6691C11.5945 26.9051 12.6424 26.4784 13.733 26.4816C14.1334 26.48 14.5324 26.529 14.9205 26.6275C15.0691 27.3371 15.0425 28.0723 14.8428 28.7693C14.6431 29.4664 14.2765 30.1042 13.7746 30.6275ZM13.7746 23.1275C13.2446 23.6435 12.5895 24.0128 11.8736 24.1991C11.1577 24.3854 10.4056 24.3822 9.6913 24.19C9.62691 23.8815 9.59203 23.5676 9.58713 23.2525V23.2108C9.58118 22.6509 9.6868 22.0954 9.89784 21.5767C10.1089 21.0581 10.4211 20.5867 10.8163 20.19C11.1977 19.8048 11.6521 19.4995 12.1529 19.292C12.6537 19.0846 13.1909 18.979 13.733 18.9816C14.1327 18.9903 14.5305 19.0392 14.9205 19.1275C15.0691 19.8371 15.0425 20.5723 14.8428 21.2693C14.6431 21.9664 14.2765 22.6042 13.7746 23.1275ZM13.7746 15.6275C13.2473 16.1476 12.5922 16.5197 11.8754 16.7062C11.1586 16.8927 10.4053 16.8871 9.6913 16.69C9.62691 16.3815 9.59203 16.0676 9.58713 15.7525V15.7108C9.58118 15.1509 9.6868 14.5954 9.89784 14.0767C10.1089 13.5581 10.4211 13.0867 10.8163 12.69C11.2018 12.3058 11.6603 12.0028 12.1648 11.7989C12.6694 11.5949 13.2097 11.4941 13.7538 11.5025C14.1473 11.5021 14.5392 11.5511 14.9205 11.6483C15.0692 12.3547 15.0425 13.0868 14.8428 13.7805C14.643 14.4742 14.2763 15.1084 13.7746 15.6275Z" fill="black"/>
</svg>
