<svg width="51" height="48" viewBox="0 0 51 48" fill="none" xmlns="http://www.w3.org/2000/svg">
<path d="M37 11.4287H40.3333M15.3333 2H35.3333C38.8696 2 42.2609 3.32451 44.7614 5.68214C47.2619 8.03978 48.6667 11.2374 48.6667 14.5716V33.429C48.6667 36.7632 47.2619 39.9609 44.7614 42.3185C42.2609 44.6762 38.8696 46.0007 35.3333 46.0007H15.3333C11.7971 46.0007 8.40573 44.6762 5.90524 42.3185C3.40476 39.9609 2 36.7632 2 33.429V14.5716C2 11.2374 3.40476 8.03978 5.90524 5.68214C8.40573 3.32451 11.7971 2 15.3333 2ZM25.3333 33.429C22.6812 33.429 20.1376 32.4357 18.2623 30.6674C16.3869 28.8992 15.3333 26.501 15.3333 24.0003C15.3333 21.4997 16.3869 19.1015 18.2623 17.3332C20.1376 15.565 22.6812 14.5716 25.3333 14.5716C27.9855 14.5716 30.529 15.565 32.4044 17.3332C34.2798 19.1015 35.3333 21.4997 35.3333 24.0003C35.3333 26.501 34.2798 28.8992 32.4044 30.6674C30.529 32.4357 27.9855 33.429 25.3333 33.429Z" stroke="black" stroke-width="3.33333"/>
</svg>
