<svg width="29" height="41" viewBox="0 0 29 41" fill="none" xmlns="http://www.w3.org/2000/svg">
<path d="M6.16667 8.25H22.8333M6.16667 8.25V4.08333C6.16667 3.5308 6.38616 3.00089 6.77686 2.61019C7.16756 2.21949 7.69747 2 8.25 2H20.75C21.3025 2 21.8324 2.21949 22.2231 2.61019C22.6138 3.00089 22.8333 3.5308 22.8333 4.08333V8.25M6.16667 8.25L3.8875 11.9146C2.65399 13.8965 2.00014 16.1843 2 18.5187V35.3333C2 36.4384 2.43899 37.4982 3.22039 38.2796C4.00179 39.061 5.0616 39.5 6.16667 39.5H22.8333C23.9384 39.5 24.9982 39.061 25.7796 38.2796C26.561 37.4982 27 36.4384 27 35.3333V18.5187C26.9999 16.1843 26.346 13.8965 25.1125 11.9146L22.8333 8.25" stroke="black" stroke-width="3" stroke-linecap="round" stroke-linejoin="round"/>
<path d="M10.3333 16.5834H18.6666M10.3333 29.0834C10.3333 30.1884 10.7722 31.2482 11.5536 32.0297C12.335 32.8111 13.3948 33.25 14.4999 33.25C15.605 33.25 16.6648 32.8111 17.4462 32.0297C18.2276 31.2482 18.6666 30.1884 18.6666 29.0834C18.6666 27.9783 18.2276 26.9185 17.4462 26.1371C16.6648 25.3557 15.605 24.9167 14.4999 24.9167C13.3948 24.9167 12.335 25.3557 11.5536 26.1371C10.7722 26.9185 10.3333 27.9783 10.3333 29.0834Z" stroke="black" stroke-width="3" stroke-linecap="round" stroke-linejoin="round"/>
</svg>
