<svg width="21" height="37" viewBox="0 0 21 37" fill="none" xmlns="http://www.w3.org/2000/svg">
<mask id="path-1-inside-1_202_14" fill="white">
<path d="M18.3011 18.5C18.3011 17 21 13.7047 21 10.5C21 4.70101 16.299 0 10.5 0C4.70101 0 0 4.70101 0 10.5C0 13.7047 2.69894 16.7156 2.69894 18.5C2.69894 20.2844 0 23.2953 0 26.5C0 32.299 4.70101 37 10.5 37C16.299 37 21 32.299 21 26.5C21 23.2953 18.3011 20 18.3011 18.5Z"/>
</mask>
<path d="M18 10.5C18 11.3602 17.6151 12.4409 16.9437 13.8457C16.6707 14.417 16.2509 15.2423 15.9808 15.8506C15.7373 16.3991 15.3011 17.4174 15.3011 18.5H21.3011C21.3011 18.8326 21.2022 18.8764 21.4647 18.2851C21.7007 17.7535 21.9556 17.2735 22.3573 16.4328C23.0354 15.0138 24 12.8445 24 10.5H18ZM10.5 3C14.6421 3 18 6.35786 18 10.5H24C24 3.04416 17.9558 -3 10.5 -3V3ZM3 10.5C3 6.35786 6.35786 3 10.5 3V-3C3.04416 -3 -3 3.04416 -3 10.5H3ZM5.69894 18.5C5.69894 17.3988 5.30742 16.3948 5.02943 15.754C4.73977 15.0863 4.32746 14.2919 4.0432 13.7121C3.36803 12.3348 3 11.3393 3 10.5H-3C-3 12.8653 -2.01856 14.9777 -1.34426 16.3532C-0.953779 17.1497 -0.691355 17.643 -0.474964 18.1418C-0.246906 18.6675 -0.301058 18.709 -0.301058 18.5H5.69894ZM3 26.5C3 25.6607 3.36803 24.6652 4.0432 23.2879C4.32746 22.7081 4.73977 21.9137 5.02943 21.246C5.30742 20.6052 5.69894 19.6012 5.69894 18.5H-0.301058C-0.301058 18.291 -0.246906 18.3325 -0.474964 18.8582C-0.691355 19.357 -0.953779 19.8503 -1.34426 20.6468C-2.01856 22.0223 -3 24.1347 -3 26.5H3ZM10.5 34C6.35786 34 3 30.6421 3 26.5H-3C-3 33.9558 3.04416 40 10.5 40V34ZM18 26.5C18 30.6421 14.6421 34 10.5 34V40C17.9558 40 24 33.9558 24 26.5H18ZM15.3011 18.5C15.3011 19.5826 15.7373 20.6009 15.9808 21.1494C16.2509 21.7577 16.6707 22.583 16.9437 23.1543C17.6151 24.5591 18 25.6398 18 26.5H24C24 24.1555 23.0354 21.9862 22.3573 20.5672C21.9556 19.7265 21.7007 19.2465 21.4647 18.7149C21.2022 18.1236 21.3011 18.1674 21.3011 18.5H15.3011Z" fill="black" mask="url(#path-1-inside-1_202_14)"/>
<circle cx="13.5" cy="8.5" r="1.5" fill="black"/>
<circle cx="14.5" cy="24.5" r="1.5" fill="black"/>
<circle cx="10.5" cy="27.5" r="1.5" fill="black"/>
<circle cx="14.5" cy="28.5" r="1.5" fill="black"/>
</svg>
