<svg width="23" height="39" viewBox="0 0 23 39" fill="none" xmlns="http://www.w3.org/2000/svg">
<path d="M11.5456 39C10.714 39 9.90009 38.9116 9.08616 38.7347C2.87555 37.408 -1.07022 31.2879 0.256835 25.0793C0.699186 22.992 1.72544 21.0817 3.19405 19.5428C3.48402 19.2372 3.64567 18.832 3.64567 18.4107C3.64567 17.9895 3.48402 17.5843 3.19405 17.2787C-0.486314 12.7151 0.221447 6.02888 4.78651 2.3497C9.35157 -1.32948 16.0399 -0.609562 19.7203 3.95934C22.8521 7.8331 22.8521 13.3519 19.7203 17.2787C19.2072 18.0039 19.2779 19.0121 19.8972 19.6489C24.2323 24.2833 24.0022 31.5709 19.3487 35.9045C17.2362 37.891 14.4458 38.998 11.5456 39ZM11.5456 3.62326C9.93548 3.62326 8.36071 4.1716 7.12212 5.19753C6.39575 5.77524 5.79085 6.49088 5.34225 7.30324C4.89366 8.11559 4.61022 9.00863 4.50825 9.93093C4.40629 10.8532 4.48782 11.7866 4.74814 12.6773C5.00846 13.568 5.44244 14.3984 6.02509 15.1207C7.72372 17.1372 7.59986 20.1265 5.75968 22.0369C2.75169 25.2385 2.92863 30.2796 6.13126 33.2867C9.33388 36.2937 14.3767 36.1345 17.3847 32.9152C18.7658 31.4406 19.5343 29.4961 19.5343 27.476C19.5343 25.4559 18.7658 23.5115 17.3847 22.0369C16.4693 21.1037 15.9307 19.8657 15.8719 18.5601C15.8131 17.2545 16.2384 15.9731 17.0662 14.9615C18.2376 13.4971 18.7799 11.628 18.5743 9.76427C18.3686 7.90056 17.4317 6.19455 15.9691 5.02065C15.0844 4.34849 14.1467 3.8709 13.1027 3.62326H11.5456ZM11.5456 8.92978C11.5456 9.90264 12.3419 10.6986 13.315 10.6986C14.2882 10.6986 15.0844 9.90264 15.0844 8.92978C15.0844 7.95692 14.2882 7.16094 13.315 7.16094C12.3419 7.16094 11.5456 7.95692 11.5456 8.92978ZM15.0844 31.9247C16.0576 31.9247 16.8538 31.1287 16.8538 30.1558C16.8538 29.183 16.0576 28.387 15.0844 28.387C14.1113 28.387 13.315 29.183 13.315 30.1558C13.315 31.1287 14.1113 31.9247 15.0844 31.9247ZM13.315 26.6181C14.2882 26.6181 15.0844 25.8222 15.0844 24.8493C15.0844 23.8764 14.2882 23.0805 13.315 23.0805C12.3419 23.0805 11.5456 23.8764 11.5456 24.8493C11.5456 25.8222 12.3419 26.6181 13.315 26.6181ZM9.77623 30.1558C10.7494 30.1558 11.5456 29.3598 11.5456 28.387C11.5456 27.4141 10.7494 26.6181 9.77623 26.6181C8.80306 26.6181 8.00683 27.4141 8.00683 28.387C8.00683 29.3598 8.80306 30.1558 9.77623 30.1558Z" fill="#151515"/>
</svg>
