<svg width="51" height="41" viewBox="0 0 51 41" fill="none" xmlns="http://www.w3.org/2000/svg">
<path d="M48.262 1.57184L49.9287 1.46813C49.9071 1.15962 49.7894 0.863985 49.5904 0.618234C49.3914 0.372482 49.12 0.187536 48.8101 0.0865496C48.5001 -0.0144372 48.1655 -0.0269771 47.848 0.0504998C47.5306 0.127977 47.2444 0.292028 47.0254 0.522115L48.262 1.57184ZM46.602 10.8717C46.602 10.4549 46.4265 10.0552 46.1139 9.76052C45.8013 9.46581 45.3774 9.30025 44.9354 9.30025C44.4934 9.30025 44.0694 9.46581 43.7569 9.76052C43.4443 10.0552 43.2687 10.4549 43.2687 10.8717H46.602ZM1.66871 36.1438V34.5723C1.31084 34.5719 0.962333 34.6801 0.674745 34.881C0.387157 35.0818 0.175761 35.3645 0.0718312 35.6874C-0.0320988 36.0103 -0.0230435 36.3562 0.0976576 36.6738C0.218359 36.9915 0.444295 37.264 0.742043 37.4512L1.66871 36.1438ZM4.99538 1.57184L6.55871 1.02184C6.4451 0.734914 6.24505 0.485545 5.98314 0.304387C5.72124 0.12323 5.4089 0.0181805 5.08452 0.00215365C4.76014 -0.0138732 4.43787 0.0598212 4.15732 0.214177C3.87677 0.368532 3.65017 0.596821 3.50538 0.870977L4.99538 1.57184ZM18.3087 29.858L19.4887 30.9674C19.6889 30.7781 19.8346 30.5437 19.9119 30.2864C19.9892 30.0292 19.9956 29.7576 19.9305 29.4974C19.8654 29.2371 19.731 28.9968 19.54 28.7993C19.3489 28.6017 19.1075 28.4533 18.8387 28.3682L18.3087 29.858ZM42.3887 4.62989L41.1554 5.68591L41.7554 6.31134L42.6387 6.18563L42.3887 4.62989ZM46.602 1.67556C46.772 4.12074 46.612 5.60419 46.192 6.72306C45.7854 7.80737 45.072 8.69995 43.782 9.86597L46.0887 12.1351C47.5487 10.8151 48.6754 9.52025 49.3354 7.7728C49.9787 6.05677 50.112 4.07045 49.9287 1.46813L46.602 1.67556ZM46.602 13.1597V10.8717H43.2687V13.1629H46.602V13.1597ZM23.302 11.1294V14.1435H26.6354V11.1294H23.302ZM23.302 14.1435V15.7149H26.6354V14.1435H23.302ZM35.0854 0.000392359C33.5362 0.00121759 32.0024 0.289733 30.5715 0.849465C29.1406 1.4092 27.8406 2.22919 26.7458 3.26261C25.651 4.29604 24.7828 5.52266 24.1908 6.87245C23.5988 8.22224 23.2945 9.66876 23.2954 11.1294H26.6287C26.6278 10.0812 26.846 9.04314 27.2707 8.07446C27.6954 7.10578 28.3184 6.22549 29.104 5.48387C29.8897 4.74225 30.8225 4.15383 31.8494 3.75223C32.8763 3.35063 33.977 3.14371 35.0887 3.1433V0.000392359H35.0854ZM43.2654 13.1597C43.2687 26.7245 31.6254 37.7152 17.2687 37.7152V40.8581C33.4687 40.8581 46.602 28.4562 46.602 13.1597H43.2654ZM3.43538 2.12185C5.24871 6.68535 12.0487 15.7149 24.9687 15.7149V12.572C13.9154 12.572 8.07204 4.84047 6.55538 1.02184L3.43538 2.12185ZM3.50538 0.870977C0.0153756 7.4585 -0.521291 13.8512 2.01538 19.2947C4.54538 24.7225 9.98871 28.8963 17.782 31.3477L18.8387 28.3682C11.6554 26.1054 7.11204 22.4219 5.06538 18.0281C3.02538 13.65 3.32204 8.25366 6.48871 2.27271L3.50538 0.870977ZM17.1287 28.7485C15.122 30.6437 9.08871 34.5723 1.66871 34.5723V37.7152C10.222 37.7152 17.0587 33.2649 19.4887 30.9674L17.1287 28.7485ZM43.6254 3.57702C42.5477 2.45014 41.2308 1.54941 39.7602 0.93326C38.2896 0.317105 36.698 -0.000720987 35.0887 0.000392359V3.1433C37.492 3.1433 39.6554 4.12074 41.1554 5.68591L43.6254 3.57702ZM42.6387 6.18563C45.2939 5.77662 47.7187 4.51806 49.5054 2.62157L47.0254 0.522115C45.7545 1.87589 44.0297 2.77778 42.1387 3.0773L42.6387 6.18563ZM0.742043 37.4512C6.21204 40.8896 11.9454 40.8581 17.2687 40.8581V37.7152C11.8354 37.7152 7.10871 37.6807 2.59538 34.8363L0.742043 37.4512Z" fill="black"/>
</svg>
