<svg width="114" height="114" viewBox="0 0 114 114" fill="none" xmlns="http://www.w3.org/2000/svg">
<path d="M57.2812 48.2031C57.2812 49.3594 56.875 50.375 56.0625 51.25C55.25 52.0938 54.1875 52.8438 52.875 53.5C51.5938 54.125 50.1562 54.6562 48.5625 55.0938C47 55.5312 45.4375 55.8906 43.875 56.1719C42.3438 56.4531 40.9062 56.6719 39.5625 56.8281C38.25 56.9531 37.2031 57.0312 36.4219 57.0625L36.7969 66.625L47.6719 71.125L18.0938 71.5L28.1719 66.2031L27.75 44.2188L16.6875 39.2031L39.2344 39.8125C40.0781 39.8438 41.1094 39.9062 42.3281 40C43.5781 40.0938 44.8594 40.2656 46.1719 40.5156C47.5156 40.7344 48.8438 41.0469 50.1562 41.4531C51.5 41.8281 52.6875 42.3281 53.7188 42.9531C54.7812 43.5469 55.6406 44.2812 56.2969 45.1562C56.9531 46 57.2812 47.0156 57.2812 48.2031ZM50.8125 48.2031C50.8125 47.6406 50.5938 47.1562 50.1562 46.75C49.7188 46.3125 49.1562 45.9531 48.4688 45.6719C47.7812 45.3594 47.0156 45.1094 46.1719 44.9219C45.3281 44.7031 44.5 44.5469 43.6875 44.4531C42.875 44.3281 42.125 44.25 41.4375 44.2188C40.7812 44.1562 40.2656 44.125 39.8906 44.125C39.1719 44.125 38.4375 44.1406 37.6875 44.1719C36.9375 44.2031 36.2031 44.25 35.4844 44.3125L35.7188 52.9375C36.125 53 36.5 53.0312 36.8438 53.0312C37.2188 53.0312 37.5938 53.0312 37.9688 53.0312C38.4062 53.0312 39.0156 53.0156 39.7969 52.9844C40.6094 52.9219 41.4844 52.8281 42.4219 52.7031C43.3906 52.5469 44.3594 52.3594 45.3281 52.1406C46.3281 51.8906 47.2344 51.5938 48.0469 51.25C48.8594 50.875 49.5156 50.4375 50.0156 49.9375C50.5469 49.4375 50.8125 48.8594 50.8125 48.2031ZM93 53.5C93 56.3438 92.5938 58.8281 91.7812 60.9531C90.9688 63.0469 89.7969 64.7969 88.2656 66.2031C86.7344 67.6094 84.8594 68.6719 82.6406 69.3906C80.4531 70.0781 77.9688 70.4219 75.1875 70.4219C73.3125 70.4219 71.4531 70.4844 69.6094 70.6094C67.7969 70.7344 65.9688 70.8438 64.125 70.9375L52.125 71.5938L62.3906 66.1094V65.8281C62.3906 62.0469 62.2031 58.3125 61.8281 54.625C61.4531 50.9375 61.1406 47.2344 60.8906 43.5156L47.6719 37.75C50.1406 37.8125 52.5938 37.875 55.0312 37.9375C57.4688 38 59.9219 38.0312 62.3906 38.0312C64.3594 38.0312 66.2969 38.0156 68.2031 37.9844C70.1406 37.9531 72.0781 37.9375 74.0156 37.9375C76.3906 37.9375 78.7188 38.2656 81 38.9219C83.2812 39.5469 85.3125 40.5 87.0938 41.7812C88.875 43.0625 90.2969 44.6875 91.3594 46.6562C92.4531 48.5938 93 50.875 93 53.5ZM84.7969 54.1562C84.7969 52.4688 84.6094 50.9219 84.2344 49.5156C83.8594 48.0781 83.2656 46.8594 82.4531 45.8594C81.6406 44.8281 80.5938 44.0312 79.3125 43.4688C78.0312 42.875 76.4844 42.5781 74.6719 42.5781C73.9531 42.5781 73.2344 42.5938 72.5156 42.625C71.8281 42.625 71.125 42.6094 70.4062 42.5781L69.1875 66.1562C69.9062 66.1562 70.5938 66.1719 71.25 66.2031C71.9062 66.2031 72.5781 66.2031 73.2656 66.2031V66.1094C73.7031 66.1406 74.1094 66.1719 74.4844 66.2031C74.8594 66.2031 75.25 66.2031 75.6562 66.2031C77.5 66.2031 79.0156 65.875 80.2031 65.2188C81.3906 64.5312 82.3125 63.6406 82.9688 62.5469C83.6562 61.4219 84.125 60.1406 84.375 58.7031C84.6562 57.2344 84.7969 55.7188 84.7969 54.1562Z" fill="black"/>
<circle cx="57" cy="57" r="54.5" stroke="black" stroke-width="5"/>
</svg>
