<svg width="51" height="48" viewBox="0 0 51 48" fill="none" xmlns="http://www.w3.org/2000/svg">
<path d="M25.3333 46.0007C22.2692 46.0007 19.235 45.4316 16.4041 44.326C13.5731 43.2204 11.0009 41.5998 8.83417 39.5569C6.66747 37.514 4.94875 35.0887 3.77614 32.4195C2.60353 29.7503 2 26.8895 2 24.0003C2 21.1112 2.60353 18.2504 3.77614 15.5812C4.94875 12.912 6.66747 10.4867 8.83417 8.44375C11.0009 6.40083 13.5731 4.7803 16.4041 3.67468C19.235 2.56906 22.2692 2 25.3333 2C31.5217 2 37.4566 4.31789 41.8325 8.44375C46.2083 12.5696 48.6667 18.1655 48.6667 24.0003C48.6667 29.8352 46.2083 35.431 41.8325 39.5569C37.4566 43.6828 31.5217 46.0007 25.3333 46.0007ZM25.3333 46.0007V20.8574C25.3333 19.1903 26.0357 17.5915 27.286 16.4127C28.5362 15.2339 30.2319 14.5716 32 14.5716H33.6667M17 27.1432H33.6667" stroke="black" stroke-width="3.33333"/>
</svg>
