<svg width="588" height="590" viewBox="0 0 588 590" fill="none" xmlns="http://www.w3.org/2000/svg">
<path fill-rule="evenodd" clip-rule="evenodd" d="M347.841 92.0979C402.377 91.9397 434.32 148.933 459.948 192.838C484.036 234.103 506.331 283.684 484.318 325.903C463.775 365.304 399.466 356.578 361.032 382.555C313.027 415.002 296.797 501.085 237.785 492.538C180.151 484.191 189.218 402.462 164.78 354.131C145.032 315.076 92.4442 280.208 110.295 240.401C128.212 200.448 197.765 217.867 236.82 193.485C281.745 165.438 293.399 92.2559 347.841 92.0979Z" fill="#ECB6C9"/>
<path fill-rule="evenodd" clip-rule="evenodd" d="M357.197 53.5331C423.061 53.342 461.64 122.175 492.591 175.199C521.683 225.036 548.609 284.916 522.024 335.905C497.214 383.491 419.545 372.951 373.129 404.325C315.152 443.512 295.55 547.476 224.281 537.154C154.675 527.072 165.625 428.366 136.11 369.996C112.261 322.829 48.749 280.717 70.308 232.642C91.946 184.39 175.947 205.428 223.115 175.98C277.372 142.107 291.446 53.7239 357.197 53.5331Z" stroke="black" stroke-width="2.67604"/>
</svg>
